<?xml version="1.0" encoding="iso-8859-1"?>
<!-- Generator: Adobe Illustrator 19.0.0, SVG Export Plug-In . SVG Version: 6.00 Build 0)  -->
<svg xmlns="http://www.w3.org/2000/svg" xmlns:xlink="http://www.w3.org/1999/xlink" version="1.1" id="Capa_1" x="0px" y="0px" viewBox="0 0 512.001 512.001" style="enable-background:new 0 0 512.001 512.001;" xml:space="preserve">
<path style="fill:#C1E9FD;" d="M64.787,504.501c-5.339,0-9.667-4.346-9.667-9.707V91.551V27.057  c0-11.077,9.171-20.003,20.304-19.538c6.452,0.269,12.311,3.878,15.792,9.34l1.874,2.94c12.073,18.942,39.631,18.942,51.703,0  l2.092-3.283c3.58-5.616,9.762-9.014,16.403-9.014h5.469c6.64,0,12.823,3.398,16.403,9.014l0,0  c12.073,18.942,39.631,18.942,51.703,0l3.726-3.741c2.888-2.9,8.593-5.273,12.677-5.273h5.469c4.084,0,9.789,2.373,12.677,5.273  l3.726,3.741c12.073,18.942,39.631,18.942,51.703,0l0,0c3.58-5.616,9.762-9.014,16.403-9.014h5.469  c6.64,0,12.823,3.398,16.403,9.014l2.093,3.283c12.073,18.942,39.631,18.942,51.704,0l2.093-3.283  c3.58-5.616,9.762-9.014,16.403-9.014l0,0c10.755,0,19.474,8.755,19.474,19.556v64.493v403.243c0,5.361-4.328,9.707-9.667,9.707  L64.787,504.501L64.787,504.501z"/>
<path style="fill:#A4E0F7;" d="M456.882,27.057v64.494v403.243c0,5.361-4.328,9.707-9.667,9.707H64.787  c-5.339,0-9.667-4.346-9.667-9.707v-14.576h364.061c5.339,0,9.667-4.346,9.667-9.707v-408.1V9.499  c2.626-1.291,5.543-1.998,8.559-1.998l0,0C448.163,7.501,456.882,16.256,456.882,27.057z"/>
<path style="fill:#8EB55E;" d="M119.351,226.429c11.647-22.525,39.272-31.303,61.703-19.608  c13.599,7.09,22.165,20.079,24.208,34.227c13.678-10.709,32.854-13.105,49.254-4.554c22.431,11.695,31.173,39.436,19.526,61.961  s-39.272,31.303-61.703,19.608c-3.581-1.867-6.812-4.145-9.668-6.744c-0.847,3.776-2.185,7.505-4.044,11.101  c-11.647,22.525-39.272,31.303-61.703,19.608s-31.173-39.436-19.526-61.961c1.298-2.51,2.795-4.847,4.46-7.007  C112.952,259.59,111.406,241.796,119.351,226.429z"/>
<path style="fill:#5BA14D;" d="M393.559,316.788c-14.228,20.977-42.696,26.399-63.585,12.112  c-12.664-8.662-19.634-22.58-19.99-36.871c-14.848,9.002-34.171,9.095-49.444-1.351c-20.889-14.287-26.29-42.874-12.062-63.85  c14.228-20.977,42.696-26.399,63.585-12.112c3.335,2.281,6.273,4.928,8.802,7.849c1.288-3.648,3.057-7.191,5.328-10.54  c14.228-20.977,42.696-26.399,63.585-12.112c20.889,14.287,26.29,42.874,12.062,63.85c-1.585,2.337-3.348,4.48-5.257,6.425  C403.834,284.626,403.266,302.478,393.559,316.788z"/>
<path style="fill:#EACC8F;" d="M396.012,462.537l-11.649-0.68c-89.36-5.217-178.953-5.022-268.289,0.585l0,0  c-11.13,0.699-20.539-8.178-20.539-19.376v-152.81c0-11.198,9.409-20.075,20.539-19.376l0,0  c89.337,5.607,178.929,5.802,268.289,0.585l11.649-0.68c11.1-0.648,20.455,8.216,20.455,19.381v152.99  C416.468,454.321,407.112,463.185,396.012,462.537z"/>
<path style="fill:#D59A4C;" d="M371.915,428.578l-68.656-7.548c-35.257-3.876-70.84-3.691-106.055,0.552l-57.019,6.871  c-5.754,0.693-10.818-3.818-10.818-9.638V314.507c0-5.82,5.064-10.331,10.818-9.638l57.019,6.871  c35.215,4.243,70.798,4.429,106.055,0.552l68.656-7.548c5.721-0.629,10.719,3.87,10.719,9.649v104.536  C382.634,424.708,377.637,429.207,371.915,428.578z"/>
<path style="fill:#F24F43;" d="M473.501,75.743v9.121c0,5.523-4.477,10-10,10h-415c-5.523,0-10-4.477-10-10v-9.121  c0-5.523,4.477-10,10-10h415C469.024,65.743,473.501,70.22,473.501,75.743z"/>
<path style="fill:#ED322E;" d="M473.501,75.45v9.707c0,5.361-4.328,9.707-9.667,9.707h-34.981V65.743h34.981  C469.173,65.743,473.501,70.089,473.501,75.45z"/>
<path d="M291.034,386.075c0-4.143,3.357-7.5,7.5-7.5h0.967c4.143,0,7.5,3.357,7.5,7.5s-3.357,7.5-7.5,7.5h-0.967  C294.392,393.575,291.034,390.218,291.034,386.075z M337.201,345.04h0.967c4.143,0,7.5-3.357,7.5-7.5s-3.357-7.5-7.5-7.5h-0.967  c-4.143,0-7.5,3.357-7.5,7.5S333.059,345.04,337.201,345.04z M338.4,386.075c0,4.143,3.357,7.5,7.5,7.5h0.967  c4.143,0,7.5-3.357,7.5-7.5s-3.357-7.5-7.5-7.5H345.9C341.758,378.575,338.4,381.933,338.4,386.075z M456.882,163.08  c-4.143,0-7.5,3.357-7.5,7.5v324.214c0,1.217-0.972,2.207-2.167,2.207H64.787c-1.195,0-2.167-0.99-2.167-2.207V434.61  c0-4.143-3.357-7.5-7.5-7.5s-7.5,3.357-7.5,7.5v60.184c0,9.488,7.701,17.207,17.167,17.207h382.428  c9.466,0,17.167-7.719,17.167-17.207V170.58C464.382,166.437,461.024,163.08,456.882,163.08z M249.234,354.747h0.967  c4.143,0,7.5-3.357,7.5-7.5s-3.357-7.5-7.5-7.5h-0.967c-4.143,0-7.5,3.357-7.5,7.5S245.092,354.747,249.234,354.747z   M220.234,364.454h0.967c4.143,0,7.5-3.357,7.5-7.5s-3.357-7.5-7.5-7.5h-0.967c-4.143,0-7.5,3.357-7.5,7.5  S216.092,364.454,220.234,364.454z M481.001,75.744v9.121c0,9.354-7.377,17.019-16.619,17.478v42.027c0,4.143-3.357,7.5-7.5,7.5  s-7.5-3.357-7.5-7.5v-42.006H62.62v303.772c0,4.143-3.357,7.5-7.5,7.5s-7.5-3.357-7.5-7.5V102.343  c-9.242-0.459-16.619-8.124-16.619-17.478v-9.121c0-9.354,7.377-17.019,16.619-17.478V27.057c0-7.457,2.96-14.402,8.334-19.557  c5.348-5.129,12.384-7.791,19.783-7.475c8.776,0.365,16.928,5.151,21.804,12.803l1.873,2.937  c4.286,6.726,11.586,10.74,19.528,10.739c7.941,0,15.241-4.014,19.525-10.737l2.094-3.284c4.981-7.815,13.479-12.482,22.728-12.482  h5.469c9.25,0,17.746,4.667,22.728,12.483c4.285,6.724,11.585,10.738,19.527,10.738c7.941-0.001,15.241-4.015,19.525-10.738  c0.291-0.456,0.63-0.88,1.012-1.263l3.726-3.74c4.316-4.334,11.883-7.48,17.991-7.48h5.469c6.108,0,13.676,3.146,17.992,7.481  l3.724,3.739c0.382,0.383,0.721,0.807,1.011,1.262c4.286,6.725,11.586,10.739,19.527,10.739c7.942,0,15.242-4.015,19.528-10.739  c4.98-7.815,13.477-12.482,22.727-12.482h5.469c9.25,0,17.746,4.667,22.728,12.483l2.092,3.282  c4.286,6.725,11.586,10.738,19.528,10.738c7.941,0,15.241-4.014,19.526-10.738l2.092-3.282c4.983-7.817,13.479-12.483,22.729-12.483  c14.874,0,26.975,12.137,26.975,27.056v31.208C473.624,58.725,481.001,66.389,481.001,75.744z M62.62,58.244h386.762V27.057  c0-6.647-5.372-12.056-11.975-12.056c-4.098,0-7.865,2.073-10.079,5.545l-2.091,3.282c-7.055,11.069-19.084,17.677-32.177,17.677  c-13.094,0-25.123-6.607-32.177-17.676l-2.093-3.283c-2.213-3.473-5.98-5.545-10.078-5.545h-5.469  c-4.098,0-7.865,2.072-10.077,5.544c-7.055,11.069-19.084,17.678-32.178,17.678c-12.808,0-24.598-6.324-31.708-16.961l-3.183-3.194  c-1.484-1.491-5.269-3.066-7.363-3.066h-5.469c-2.095,0-5.88,1.576-7.363,3.066l-3.183,3.194  c-7.11,10.637-18.899,16.96-31.708,16.961c-13.094,0-25.123-6.608-32.177-17.677c-2.213-3.473-5.98-5.545-10.078-5.545h-5.469  c-4.098,0-7.865,2.073-10.079,5.546l-2.093,3.283c-7.053,11.067-19.081,17.675-32.175,17.675  c-13.094,0.001-25.123-6.607-32.177-17.676l-1.874-2.938c-2.243-3.521-5.898-5.717-9.778-5.879c-3.311-0.134-6.405,1.04-8.776,3.314  c-2.396,2.299-3.717,5.399-3.717,8.73v31.188H62.62z M466.001,75.744c0-1.379-1.121-2.5-2.5-2.5h-415c-1.379,0-2.5,1.121-2.5,2.5  v9.121c0,1.379,1.121,2.5,2.5,2.5h415c1.379,0,2.5-1.121,2.5-2.5V75.744z M96.526,270.611c3.575-3.357,8.002-5.645,12.729-6.665  c-4.301-13.452-3.162-28.203,3.435-40.962c6.564-12.695,17.666-22.057,31.259-26.357c13.552-4.291,27.962-3.029,40.573,3.545  c11.887,6.197,20.922,16.668,25.462,29.089c9.616-4.748,20.436-6.476,31.148-4.89c0.367-0.589,0.747-1.174,1.14-1.752  c8.016-11.818,20.14-19.79,34.138-22.445c13.971-2.65,28.137,0.315,39.889,8.353c0.75,0.513,1.486,1.045,2.209,1.595  c0.473-0.78,0.967-1.55,1.479-2.306c8.016-11.818,20.14-19.79,34.138-22.445c13.971-2.65,28.137,0.315,39.889,8.353  c23.648,16.174,30.226,48.241,15.231,72.406c2.258,1.15,4.368,2.635,6.273,4.433c5.37,5.065,8.45,12.211,8.45,19.605v152.99  c0,7.395-3.08,14.54-8.45,19.605c-5.032,4.747-11.49,7.31-18.333,7.31c-0.534,0-1.071-0.016-1.61-0.047l-11.647-0.68  c-88.716-5.18-178.676-4.984-267.384,0.583c-7.347,0.454-14.644-2.17-20.017-7.216c-5.396-5.069-8.492-12.229-8.492-19.645v-152.81  C88.034,282.84,91.13,275.68,96.526,270.611z M125.321,263.928c36.437,2.139,73.137,3.377,109.812,3.709  c-2.762-9.445-2.85-19.395-0.31-28.809c-8.915-0.343-17.726,2.478-24.938,8.125c-2.106,1.648-4.935,2.05-7.416,1.056  c-2.483-0.997-4.248-3.24-4.63-5.889c-1.77-12.25-9.34-22.959-20.252-28.648c-9.05-4.719-19.389-5.622-29.113-2.545  c-9.764,3.09-17.74,9.818-22.46,18.946C120.506,240.525,120.283,253.108,125.321,263.928z M103.034,443.067  c0,3.34,1.336,6.434,3.762,8.712c2.4,2.255,5.531,3.38,8.808,3.179c46.269-2.903,92.891-4.356,139.486-4.356  c43.346,0,86.666,1.256,129.711,3.77l11.647,0.68c3.28,0.188,6.387-0.945,8.776-3.199c2.414-2.276,3.743-5.364,3.743-8.694v-152.99  c0-3.33-1.329-6.418-3.743-8.694c-2.389-2.254-5.504-3.39-8.775-3.199l-11.649,0.68c-5.881,0.344-11.843,0.668-17.718,0.964  c-4.157,0.222-7.659-2.976-7.868-7.112c-0.209-4.137,2.976-7.66,7.112-7.868c5.836-0.295,11.757-0.617,17.6-0.958l8.666-0.506  c1.094-1.237,2.112-2.549,3.041-3.919c11.893-17.534,7.367-41.512-10.089-53.45c-8.434-5.769-18.604-7.9-28.624-5.996  c-10.051,1.906-18.759,7.635-24.52,16.128c-1.863,2.746-3.364,5.716-4.463,8.827c-0.89,2.52-3.053,4.375-5.678,4.872  c-2.621,0.498-5.315-0.439-7.065-2.461c-2.152-2.486-4.63-4.695-7.365-6.566c-8.435-5.769-18.601-7.897-28.624-5.996  c-10.051,1.906-18.759,7.635-24.52,16.128c-7.438,10.965-8.708,24.681-3.618,36.686c26.929,0.056,53.811-0.386,80.572-1.313  c0.089-0.004,0.177-0.005,0.265-0.005c4.021,0,7.351,3.189,7.49,7.24c0.144,4.14-3.096,7.612-7.235,7.755  c-71.897,2.491-144.756,1.471-216.556-3.035c-3.271-0.202-6.407,0.923-8.808,3.179c-2.426,2.278-3.762,5.372-3.762,8.712  L103.034,443.067L103.034,443.067z M121.867,418.816V314.507c0-4.926,2.111-9.623,5.792-12.888  c3.668-3.252,8.557-4.783,13.424-4.196l57.02,6.871c34.597,4.17,69.7,4.351,104.338,0.543l68.655-7.548  c4.834-0.53,9.688,1.027,13.313,4.276c3.639,3.26,5.726,7.936,5.726,12.828v104.535c0,4.893-2.087,9.568-5.726,12.828  c-3.158,2.831-7.249,4.379-11.447,4.379c-0.62,0-1.243-0.034-1.865-0.103l-68.655-7.548c-34.636-3.809-69.741-3.627-104.338,0.543  l-57.02,6.871c-4.867,0.585-9.756-0.943-13.424-4.196C123.979,428.439,121.867,423.741,121.867,418.816z M136.867,418.816  c0,0.874,0.466,1.418,0.744,1.664c0.33,0.293,0.893,0.626,1.677,0.527l57.02-6.871c18.68-2.251,37.506-3.377,56.327-3.377  c17.187,0,34.369,0.938,51.444,2.816l68.655,7.548c0.784,0.091,1.337-0.244,1.664-0.537c0.274-0.246,0.735-0.789,0.735-1.657  V314.394c0-0.868-0.461-1.411-0.735-1.657c-0.327-0.293-0.881-0.627-1.664-0.537l-68.655,7.548  c-35.774,3.934-72.034,3.746-107.771-0.561l-57.02-6.871c-0.793-0.099-1.347,0.234-1.677,0.527c-0.278,0.246-0.744,0.79-0.744,1.664  V418.816z M171.9,345.04h0.967c4.143,0,7.5-3.357,7.5-7.5s-3.357-7.5-7.5-7.5H171.9c-4.143,0-7.5,3.357-7.5,7.5  S167.758,345.04,171.9,345.04z M163.201,393.575h0.967c4.143,0,7.5-3.357,7.5-7.5s-3.357-7.5-7.5-7.5h-0.967  c-4.143,0-7.5,3.357-7.5,7.5S159.059,393.575,163.201,393.575z"/>
<g>
</g>
<g>
</g>
<g>
</g>
<g>
</g>
<g>
</g>
<g>
</g>
<g>
</g>
<g>
</g>
<g>
</g>
<g>
</g>
<g>
</g>
<g>
</g>
<g>
</g>
<g>
</g>
<g>
</g>
</svg>
