<?xml version="1.0" encoding="iso-8859-1"?>
<!-- Generator: Adobe Illustrator 19.0.0, SVG Export Plug-In . SVG Version: 6.00 Build 0)  -->
<svg xmlns="http://www.w3.org/2000/svg" xmlns:xlink="http://www.w3.org/1999/xlink" version="1.1" id="Layer_1" x="0px" y="0px" viewBox="0 0 512 512" style="enable-background:new 0 0 512 512;" xml:space="preserve">
<circle style="fill:#F2B5D4;" cx="256.032" cy="82.75" r="71.691"/>
<path style="fill:#F79CC6;" d="M295.372,115.102c-39.595,0-71.693-32.098-71.693-71.693c0-9.576,1.893-18.707,5.3-27.057  c-26.179,10.68-44.636,36.375-44.636,66.393c0,39.594,32.098,71.693,71.693,71.693c30.018,0,55.713-18.457,66.393-44.636  C314.078,113.21,304.948,115.102,295.372,115.102z"/>
<circle style="fill:#DDB247;" cx="314.196" cy="180.116" r="71.691"/>
<path style="fill:#DB8F42;" d="M353.529,212.47c-39.595,0-71.693-32.098-71.693-71.693c0-9.576,1.893-18.707,5.3-27.057  c-26.179,10.68-44.636,36.375-44.636,66.393c0,39.594,32.098,71.693,71.693,71.693c30.018,0,55.713-18.457,66.393-44.636  C372.236,210.577,363.105,212.47,353.529,212.47z"/>
<circle style="fill:#B2F7EF;" cx="191.326" cy="180.116" r="71.691"/>
<path style="fill:#81F2C9;" d="M230.662,212.47c-39.594,0-71.693-32.098-71.693-71.693c0-9.576,1.893-18.707,5.299-27.057  c-26.179,10.68-44.636,36.375-44.636,66.394c0,39.594,32.098,71.693,71.693,71.693c30.018,0,55.713-18.457,66.393-44.636  C249.369,210.577,240.238,212.47,230.662,212.47z"/>
<path style="fill:#F4D35E;" d="M384.804,201.566H283.486H266.24H127.195c-12.483,0-22.639,10.156-22.639,22.639v42.03  c0,12.159,9.641,22.08,21.675,22.591l55.326,195.63c2.857,11.775,13.316,19.998,25.432,19.998h98.022  c12.116,0,22.573-8.223,25.428-19.978l55.332-195.65c12.035-0.511,21.675-10.433,21.675-22.591v-42.03  C407.444,211.722,397.288,201.566,384.804,201.566z"/>
<path style="fill:#F2BB4C;" d="M342.793,288.689H199.725c-0.055,0-0.11-0.003-0.165-0.009  c-11.282-1.274-20.091-10.826-20.091-22.444v-42.03c0-12.484,10.156-22.639,22.639-22.639H128.41  c-13.174-0.001-23.854,10.679-23.854,23.853v40.817c0,11.87,9.188,21.607,20.823,22.539c0.51,0.041,0.945,0.38,1.085,0.873  l55.093,194.81c2.857,11.773,13.316,19.996,25.432,19.996h74.914c-12.117,0-22.574-8.223-25.433-19.997l-2.715-9.6h22.985  c5.275,0,9.551-4.276,9.551-9.551c0-5.275-4.276-9.551-9.551-9.551h-28.387l-41.606-147.119c-0.219-0.775,0.363-1.545,1.168-1.545  h134.877c5.082,0,9.201-4.12,9.201-9.201C351.994,292.809,347.874,288.689,342.793,288.689z"/>
<path style="fill:#845210;" d="M180.547,310.434c12.185,0,22.097-9.912,22.097-22.097v-43.116c0-5.646,4.594-10.24,10.24-10.24  s10.24,4.594,10.24,10.24v64.674c0,12.185,9.912,22.097,22.097,22.097c12.185,0,22.097-9.912,22.097-22.097V201.566h-1.078H158.451  v86.771C158.451,300.521,168.363,310.434,180.547,310.434z"/>
<g>
	<path style="fill:#6D4009;" d="M199.035,268.396c-12.185,0-22.097-9.912-22.097-22.097v-44.733h-18.488v86.771   c0,12.185,9.912,22.097,22.097,22.097s22.097-9.912,22.097-22.097v-20.262C201.467,268.269,200.266,268.396,199.035,268.396z"/>
	<path style="fill:#6D4009;" d="M263.709,289.954c-12.185,0-22.097-9.912-22.097-22.097v-64.674c0-0.552-0.056-1.089-0.14-1.617   h-20.2c-0.084,0.528-0.14,1.065-0.14,1.617v35.994c1.246,1.697,1.992,3.782,1.992,6.044v64.674   c0,12.185,9.912,22.097,22.097,22.097s22.097-9.912,22.097-22.097v-20.262C266.141,289.826,264.94,289.954,263.709,289.954z"/>
</g>
<g>
	<path style="fill:#845210;" d="M201.566,109.159v33.21c0,8.563,6.258,16.084,14.767,17.048   c10.077,1.141,18.648-6.745,18.648-16.597v-19.561C225.449,115.93,214.028,110.943,201.566,109.159z"/>
	<path style="fill:#845210;" d="M191.326,108.42c-7.713,0-15.135,1.232-22.097,3.486v41.242c0,8.563,6.258,16.084,14.767,17.048   c10.077,1.141,18.648-6.745,18.648-16.597v-44.282C198.957,108.733,195.179,108.42,191.326,108.42z"/>
	<path style="fill:#845210;" d="M266.24,11.788v55.129c0,8.563,6.258,16.084,14.767,17.048c10.076,1.143,18.648-6.744,18.648-16.596   V25.864C290.121,18.542,278.699,13.564,266.24,11.788z"/>
	<path style="fill:#845210;" d="M330.914,110.401v42.748c0,8.563,6.258,16.084,14.767,17.048   c10.077,1.142,18.648-6.745,18.648-16.597v-24.715C355.215,119.965,343.734,113.466,330.914,110.401z"/>
</g>
<g>
	<path style="fill:#6D4009;" d="M221.014,126.501v-11.641c-6.076-2.769-12.603-4.72-19.447-5.7v33.21   c0,8.563,6.258,16.084,14.767,17.048c9.872,1.119,18.278-6.434,18.616-16.005C226.871,142.067,221.014,134.78,221.014,126.501z"/>
	<path style="fill:#6D4009;" d="M188.677,137.28v-28.807c-6.764,0.249-13.286,1.439-19.447,3.433v41.242   c0,8.563,6.258,16.084,14.767,17.048c9.872,1.119,18.278-6.434,18.616-16.005C194.534,152.845,188.677,145.559,188.677,137.28z"/>
	<path style="fill:#6D4009;" d="M285.687,51.048V17.476c-6.076-2.765-12.604-4.713-19.447-5.688v55.129   c0,8.563,6.258,16.084,14.767,17.048c9.872,1.119,18.278-6.434,18.616-16.005C291.545,66.614,285.687,59.327,285.687,51.048z"/>
	<path style="fill:#6D4009;" d="M350.361,137.28v-19.052c-5.984-3.503-12.518-6.171-19.447-7.827v42.748   c0,8.563,6.258,16.084,14.767,17.048c9.872,1.119,18.278-6.434,18.616-16.005C356.218,152.845,350.361,145.559,350.361,137.28z"/>
</g>
<path style="fill:#F4D35E;" d="M206.989,504.455h98.022"/>
<path d="M392.181,194.936c0.822-4.732,1.25-9.54,1.25-14.389c0-36.378-23.382-67.381-55.9-78.818  c1.321-5.946,2.005-12.035,2.005-18.193C339.537,37.474,302.062,0,256,0c-46.063,0-83.537,37.474-83.537,83.537  c0,5.16,0.483,10.286,1.415,15.32c-37.713,8.048-66.089,41.611-66.089,81.69c0,6.402,0.728,12.736,2.157,18.91  c-7.813,5.461-12.936,14.516-12.936,24.748v42.03c0,14.275,9.964,26.259,23.301,29.383l53.952,190.774  C178,501.478,191.434,512,206.989,512h98.022c15.556,0,28.99-10.52,32.725-25.605l53.953-190.776  c13.337-3.124,23.301-15.108,23.301-29.382v-42.03C414.989,210.106,405.27,198.237,392.181,194.936z M339.537,120.069  c5.933,2.92,11.373,6.688,16.168,11.144V153.6c0,4.458-3.626,8.084-8.084,8.084s-8.084-3.626-8.084-8.084V120.069z M347.621,177.853  c13.196,0,23.956-10.596,24.24-23.724c3.474,8.117,5.402,17.047,5.402,26.419c0,4.553-0.462,9.061-1.357,13.474H273.767  c0.72-4.438,1.096-8.94,1.096-13.474c0-17.072-5.157-32.958-13.981-46.199c12.717-13.5,30.332-21.17,49.013-21.17  c4.613,0,9.119,0.468,13.474,1.356V153.6C323.368,166.973,334.249,177.853,347.621,177.853z M274.863,18.875  c5.74,1.677,11.17,4.085,16.168,7.14v41.353c0,4.458-3.626,8.084-8.084,8.084s-8.084-3.626-8.084-8.084V18.875z M256,16.168  c0.903,0,1.8,0.033,2.695,0.068v51.132c0,13.373,10.88,24.253,24.253,24.253S307.2,80.742,307.2,67.368V39.825  c10.069,11.776,16.168,27.04,16.168,43.712c0,4.855-0.525,9.654-1.54,14.339c-3.9-0.561-7.88-0.866-11.933-0.866  c-22.455,0-43.674,8.927-59.314,24.717c-15.143-15.254-36.113-24.717-59.254-24.717c-0.449,0-0.891,0.027-1.339,0.033  c-0.899-4.424-1.356-8.949-1.356-13.507C188.632,46.39,218.854,16.168,256,16.168z M226.358,123.027v19.794  c0,4.458-3.626,8.084-8.084,8.084c-4.458,0-8.084-3.626-8.084-8.084v-26.934C215.929,117.564,221.36,119.971,226.358,123.027z   M177.853,114.535c4.355-0.887,8.86-1.356,13.474-1.356c0.903,0,1.8,0.033,2.695,0.068V153.6c0,4.458-3.626,8.084-8.084,8.084  s-8.084-3.626-8.084-8.084V114.535z M161.684,120.069V153.6c0,13.373,10.879,24.253,24.253,24.253  c9.426,0,17.607-5.409,21.619-13.283c3.234,1.601,6.872,2.504,10.718,2.504c13.373,0,24.253-10.879,24.253-24.253v-5.984  c10.069,11.776,16.168,27.04,16.168,43.711c0,4.551-0.462,9.061-1.358,13.474H127.195c-0.628,0-1.25,0.026-1.869,0.064  c-0.903-4.432-1.368-8.962-1.368-13.537C123.958,154.032,139.361,131.055,161.684,120.069z M212.884,226.358  c-10.401,0-18.863,8.463-18.863,18.863v43.116c0,7.43-6.044,13.474-13.474,13.474s-13.474-6.044-13.474-13.474v-78.147h91.621  v99.705c0,7.43-6.044,13.474-13.474,13.474s-13.474-6.044-13.474-13.474v-64.674C231.747,234.82,223.285,226.358,212.884,226.358z   M113.179,266.237v-42.03c0-7.729,6.287-14.016,14.016-14.016h23.71v70.063h-23.71C119.466,280.253,113.179,273.965,113.179,266.237  z M398.821,266.237c0,7.741-6.276,14.016-14.016,14.016h-38.817c-4.465,0-8.084,3.62-8.084,8.084l0,0  c0,4.465,3.62,8.084,8.084,8.084h28.672L322.14,482.13c-0.027,0.097-0.054,0.195-0.077,0.293  c-1.917,7.895-8.928,13.408-17.052,13.408h-95.119c-7.225,0-14.082-3.447-18.182-9.396c-1.554-2.255-1.556-3.281-1.85-4.306  l-52.52-185.708h14.695c3.635,12.798,15.663,22.101,29.734,21.533c15.995-0.646,28.421-14.254,28.421-30.262V245.38  c0-1.409,1.011-2.697,2.413-2.839c1.611-0.165,2.976,1.102,2.976,2.681v64.043c0,16.129,12.622,29.78,28.743,30.26  c16.753,0.498,30.541-12.985,30.541-29.629v-13.474h26.998c4.465,0,8.084-3.62,8.084-8.084l0,0c0-4.465-3.62-8.084-8.084-8.084  h-26.998v-70.063h109.942c7.741,0,14.016,6.276,14.016,14.016V266.237z"/>
<g>
</g>
<g>
</g>
<g>
</g>
<g>
</g>
<g>
</g>
<g>
</g>
<g>
</g>
<g>
</g>
<g>
</g>
<g>
</g>
<g>
</g>
<g>
</g>
<g>
</g>
<g>
</g>
<g>
</g>
</svg>
