<?xml version="1.0" encoding="iso-8859-1"?>
<!-- Generator: Adobe Illustrator 19.0.0, SVG Export Plug-In . SVG Version: 6.00 Build 0)  -->
<svg xmlns="http://www.w3.org/2000/svg" xmlns:xlink="http://www.w3.org/1999/xlink" version="1.1" id="Capa_1" x="0px" y="0px" viewBox="0 0 512 512" style="enable-background:new 0 0 512 512;" xml:space="preserve">
<path style="fill:#506568;" d="M504.5,116.878v278.243c0,21.196-17.384,38.378-38.828,38.378H46.328  C24.884,433.5,7.5,416.317,7.5,395.122V116.878C7.5,95.683,24.884,78.5,46.328,78.5h419.344  C487.116,78.5,504.5,95.683,504.5,116.878z"/>
<path style="fill:#50757C;" d="M465.672,78.5H46.328C24.884,78.5,7.5,95.683,7.5,116.878v278.243  c0,21.196,17.384,38.378,38.828,38.378h419.344c21.444,0,38.828-17.183,38.828-38.378V116.878  C504.5,95.683,487.116,78.5,465.672,78.5z M485.086,395.122c0,10.581-8.709,19.189-19.414,19.189H46.328  c-10.705,0-19.414-8.608-19.414-19.189V116.878c0-10.581,8.709-19.189,19.414-19.189h419.344c10.705,0,19.414,8.608,19.414,19.189  V395.122z"/>
<path style="fill:#F99A1E;" d="M473.413,122.382l-7.997,142.275c-0.453,8.062-7.199,14.37-15.368,14.37s-14.915-6.308-15.368-14.37  l-7.997-142.275c-0.49-8.72,6.532-16.057,15.368-16.057h15.994C466.881,106.324,473.903,113.661,473.413,122.382z M389.217,106.324  h-15.994c-8.836,0-15.858,7.337-15.368,16.057l7.997,142.275c0.453,8.062,7.199,14.37,15.368,14.37s14.915-6.308,15.368-14.37  l7.997-142.275C405.076,113.661,398.054,106.324,389.217,106.324z"/>
<path style="fill:#FBB03B;" d="M473.413,122.382l-7.997,142.275c-0.26,4.634-2.606,8.68-6.1,11.29c-3.494-2.61-5.84-6.656-6.1-11.29  l-7.997-142.275c-0.466-8.297,5.871-15.326,14.097-15.992C467.542,107.055,473.879,114.085,473.413,122.382z M371.953,106.39  c-8.226,0.665-14.563,7.695-14.097,15.992l7.997,142.275c0.26,4.634,2.606,8.68,6.1,11.29c3.494-2.61,5.84-6.656,6.1-11.29  l7.997-142.275C386.516,114.085,380.179,107.055,371.953,106.39z M431.003,120.694c-0.453-8.062-7.199-14.37-15.368-14.37l0,0  c-8.169,0-14.915,6.308-15.368,14.37l-7.997,142.275c-0.49,8.72,6.532,16.058,15.368,16.058h15.994  c8.836,0,15.858-7.337,15.368-16.058L431.003,120.694z"/>
<path style="fill:#FEC76B;" d="M407.753,279.027h-0.116c-8.836,0-15.858-7.337-15.368-16.058l7.997-142.275  c0.292-5.199,3.209-9.656,7.429-12.175c4.22,2.519,7.137,6.976,7.429,12.175l7.997,142.275  C423.612,271.69,416.59,279.027,407.753,279.027z"/>
<path style="fill:#ED322E;" d="M473.438,370.176c0,18.546-15.211,33.581-33.975,33.581c-9.509,0-18.101-3.866-24.268-10.089  c-6.167,6.223-14.759,10.089-24.268,10.089c-18.764,0-33.975-15.035-33.975-33.581s15.211-33.581,33.975-33.581  c9.509,0,18.101,3.866,24.268,10.089c6.167-6.223,14.759-10.089,24.268-10.089C458.227,336.595,473.438,351.629,473.438,370.176z"/>
<path style="fill:#F24F43;" d="M395.781,370.176c0,13.395-7.937,24.955-19.414,30.345c-11.477-5.39-19.414-16.95-19.414-30.345  s7.937-24.955,19.414-30.345C387.845,345.221,395.781,356.78,395.781,370.176z M424.902,339.831  c-11.477,5.39-19.414,16.95-19.414,30.345s7.937,24.955,19.414,30.345c11.477-5.39,19.414-16.95,19.414-30.345  C444.316,356.78,436.38,345.221,424.902,339.831z"/>
<path style="fill:#8EB55E;" d="M274.688,318.365c2.95,5.983,4.609,12.701,4.609,19.804c0,25-20.504,45.267-45.797,45.267  c-12.925,0-24.59-5.3-32.917-13.811c-8.327,8.511-19.992,13.811-32.917,13.811s-24.59-5.3-32.917-13.811  c-8.327,8.511-19.992,13.811-32.917,13.811c-25.293,0-45.797-20.267-45.797-45.267c0-7.103,1.659-13.822,4.609-19.804  c-2.95-5.983-4.609-12.701-4.609-19.804c0-25,20.504-45.267,45.797-45.267c12.925,0,24.59,5.3,32.917,13.811  c8.327-8.511,19.992-13.811,32.917-13.811s24.59,5.3,32.917,13.811c8.327-8.511,19.992-13.811,32.917-13.811  c25.293,0,45.797,20.267,45.797,45.267C279.297,305.664,277.638,312.382,274.688,318.365z"/>
<path style="fill:#5BA14D;" d="M274.688,318.365c2.95,5.983,4.609,12.701,4.609,19.804c0,25-20.504,45.267-45.797,45.267  c-5.092,0-9.983-0.834-14.557-2.351c18.15-6.016,31.233-22.95,31.233-42.916c0-7.103-1.659-13.822-4.609-19.804  c2.95-5.983,4.609-12.701,4.609-19.804c0-19.966-13.083-36.9-31.233-42.916c4.574-1.518,9.465-2.351,14.557-2.351  c25.293,0,45.797,20.267,45.797,45.267C279.297,305.664,277.638,312.382,274.688,318.365z"/>
<path style="fill:#BC8544;" d="M153.105,132.404c36.496,0,66.263,28.442,67.871,64.124c-1.608,35.681-31.375,64.124-67.871,64.124  h-38.828c-36.496,0-66.263-28.442-67.871-64.124c1.608-35.681,31.375-64.124,67.871-64.124L153.105,132.404L153.105,132.404z"/>
<path style="fill:#D59A4C;" d="M201.641,199.566L201.641,199.566c0,37.093-30.422,67.162-67.949,67.162h-19.414  c-37.527,0-67.949-30.07-67.949-67.162l0,0c0-37.093,30.422-67.162,67.949-67.162h19.414  C171.219,132.404,201.641,162.474,201.641,199.566z"/>
<path style="fill:#F24F43;" d="M263.926,138.159c1.196,1.065,2.37,2.166,3.522,3.304c36.013,35.596,36.013,93.308,0,128.904  s-94.401,35.596-130.414,0c-1.151-1.138-2.265-2.299-3.342-3.481L263.926,138.159z"/>
<path style="fill:#ED322E;" d="M267.448,270.366c-36.013,35.596-94.401,35.596-130.414,0c-1.151-1.138-2.265-2.299-3.342-3.481  l1.756-1.736c35.5,21.406,82.464,16.955,113.17-13.396s35.209-76.77,13.553-111.859l1.756-1.736c1.196,1.065,2.37,2.166,3.522,3.304  C303.461,177.058,303.461,234.77,267.448,270.366z"/>
<path d="M112.07,189.972v19.189c0,4.142-3.358,7.5-7.5,7.5s-7.5-3.358-7.5-7.5v-19.189c0-4.142,3.358-7.5,7.5-7.5  S112.07,185.83,112.07,189.972z M439.463,411.257c-9.048,0-17.427-2.883-24.252-7.773c-7.032,5.042-15.482,7.773-24.283,7.773  c-22.869,0-41.475-18.429-41.475-41.081s18.605-41.081,41.475-41.081c8.842,0,17.265,2.724,24.288,7.77  c6.823-4.887,15.202-7.77,24.247-7.77c22.869,0,41.475,18.429,41.475,41.081S462.332,411.257,439.463,411.257z M397.988,370.176  c0-8.221,2.45-15.885,6.665-22.314c-4.096-2.456-8.808-3.767-13.726-3.767c-14.599,0-26.475,11.7-26.475,26.081  s11.876,26.081,26.475,26.081c4.896,0,9.62-1.315,13.724-3.771C400.437,386.057,397.988,378.395,397.988,370.176z M439.463,396.257  c14.598,0,26.475-11.7,26.475-26.081s-11.877-26.081-26.475-26.081s-26.475,11.7-26.475,26.081S424.865,396.257,439.463,396.257z   M474.741,105.999c4.324,4.574,6.512,10.542,6.16,16.804l-7.997,142.275c-0.676,12.027-10.716,21.449-22.856,21.449  c-4.827,0-9.418-1.485-13.222-4.158c-3.833,2.676-8.453,4.158-13.195,4.158h-15.993c-4.747,0-9.373-1.485-13.209-4.167  c-3.837,2.682-8.466,4.167-13.208,4.167c-12.141,0-22.181-9.421-22.856-21.449l-7.997-142.275  c-0.352-6.262,1.836-12.229,6.16-16.804c4.311-4.56,10.396-7.175,16.696-7.175h15.994c4.807,0,9.403,1.489,13.213,4.162  c3.739-2.625,8.3-4.162,13.204-4.162c4.901,0,9.46,1.536,13.198,4.158c3.816-2.686,8.402-4.158,13.219-4.158h15.993  C464.346,98.824,470.431,101.439,474.741,105.999z M431.511,263.391l-7.996-142.276c-0.229-4.088-3.691-7.291-7.88-7.291  s-7.65,3.202-7.88,7.291l-2.455,43.669c-0.232,4.135-3.765,7.291-7.909,7.067c-4.136-0.232-7.3-3.773-7.067-7.909l2.455-43.669  c0.1-1.767,0.401-3.479,0.882-5.111c-1.291-0.86-2.831-1.337-4.442-1.337h-15.994c-2.227,0-4.285,0.88-5.797,2.479  c-1.461,1.546-2.201,3.555-2.083,5.657l7.997,142.275c0.229,4.088,3.691,7.291,7.88,7.291c1.611,0,3.138-0.463,4.431-1.326  c-0.718-2.445-1.018-5.022-0.87-7.652L388.746,192c0.225-3.992,3.532-7.079,7.481-7.079c0.142,0,0.284,0.004,0.428,0.012  c4.136,0.232,7.3,3.773,7.067,7.909l-3.965,70.549c-0.118,2.102,0.621,4.111,2.083,5.657c1.512,1.599,3.57,2.479,5.797,2.479h15.993  c2.227,0,4.285-0.88,5.797-2.479C430.89,267.501,431.629,265.493,431.511,263.391z M463.842,116.304  c-1.512-1.599-3.57-2.479-5.797-2.479h-15.993c-1.614,0-3.15,0.471-4.443,1.334c0.481,1.634,0.783,3.346,0.883,5.114l7.996,142.276  c0.147,2.63-0.152,5.208-0.87,7.653c1.285,0.853,2.818,1.325,4.431,1.325c4.188,0,7.65-3.202,7.88-7.291l7.997-142.275  C466.043,119.859,465.303,117.85,463.842,116.304z M512,116.878v278.243C512,420.419,491.217,441,465.672,441h-31.063  c-4.143,0-7.5-3.358-7.5-7.5s3.357-7.5,7.5-7.5h31.063C482.946,426,497,412.148,497,395.122v-79.811H333.385V426h72.104  c4.143,0,7.5,3.358,7.5,7.5s-3.357,7.5-7.5,7.5H46.328C20.783,441,0,420.419,0,395.122V116.878C0,91.581,20.783,71,46.328,71h38.828  c4.142,0,7.5,3.358,7.5,7.5s-3.358,7.5-7.5,7.5H46.328C29.054,86,15,99.852,15,116.878v278.243C15,412.148,29.054,426,46.328,426  h272.057V86H114.277c-4.142,0-7.5-3.358-7.5-7.5s3.358-7.5,7.5-7.5h351.395C491.217,71,512,91.581,512,116.878z M497,116.878  C497,99.852,482.946,86,465.672,86H333.385v214.311H497V116.878z M195.377,239.121c-4.142,0-7.5,3.358-7.5,7.5v9.594  c0,4.142,3.358,7.5,7.5,7.5s7.5-3.358,7.5-7.5v-9.594C202.877,242.479,199.519,239.121,195.377,239.121z M236.034,341.929  l0.971-0.959c2.946-2.912,2.974-7.661,0.062-10.606c-2.911-2.945-7.659-2.974-10.606-0.062l-0.971,0.959  c-2.946,2.912-2.974,7.661-0.062,10.606c1.467,1.484,3.4,2.228,5.334,2.228C232.667,344.095,234.572,343.374,236.034,341.929z   M133.691,163.283c-4.142,0-7.5,3.358-7.5,7.5v57.567c0,4.142,3.358,7.5,7.5,7.5s7.5-3.358,7.5-7.5v-57.567  C141.191,166.641,137.833,163.283,133.691,163.283z M128.419,321.666l-0.971,0.959c-2.946,2.912-2.974,7.661-0.062,10.606  c1.467,1.484,3.4,2.228,5.334,2.228c1.904,0,3.81-0.721,5.272-2.166l0.971-0.959c2.946-2.912,2.974-7.661,0.062-10.606  C136.115,318.782,131.366,318.753,128.419,321.666z M94.93,287.605l-0.971,0.959c-2.946,2.912-2.974,7.66-0.062,10.606  c1.467,1.484,3.4,2.228,5.334,2.228c1.904,0,3.81-0.721,5.272-2.166l0.971-0.959c2.946-2.912,2.974-7.661,0.062-10.606  C102.625,284.72,97.876,284.693,94.93,287.605z M301.958,205.914c0,23.684-8.379,46.091-23.748,63.912  c5.629,8.552,8.587,18.417,8.587,28.734c0,6.876-1.306,13.521-3.886,19.804c2.58,6.283,3.886,12.928,3.886,19.804  c0,29.096-23.909,52.767-53.297,52.767c-14.547,0-28.141-5.706-38.278-16.066c-2.897-2.961-2.845-7.709,0.116-10.606  c2.961-2.897,7.709-2.844,10.606,0.116c7.292,7.453,17.078,11.557,27.556,11.557c21.117,0,38.297-16.942,38.297-37.767  c0-5.778-1.291-11.326-3.836-16.487c-1.031-2.091-1.031-4.543,0-6.635c2.545-5.161,3.836-10.708,3.836-16.487  c0-6.316-1.555-12.396-4.534-17.851c-39.114,33.325-98.408,31.654-135.501-5.01c-0.487-0.481-0.974-0.973-1.458-1.471h-16.026  c-11.83,0-23.036-2.71-33.012-7.533c-10.983,6.912-17.73,18.953-17.73,31.865c0,5.779,1.291,11.326,3.835,16.487  c1.031,2.091,1.031,4.543,0,6.635c-2.545,5.161-3.835,10.708-3.835,16.487c0,20.825,17.18,37.767,38.297,37.767  c10.479,0,20.265-4.104,27.555-11.556c1.411-1.442,3.344-2.255,5.361-2.255s3.95,0.813,5.361,2.255  c7.291,7.452,17.077,11.556,27.556,11.556c2.664,0,5.323-0.271,7.904-0.806c4.057-0.835,8.025,1.767,8.865,5.823  c0.84,4.056-1.767,8.025-5.823,8.865c-3.58,0.741-7.263,1.117-10.946,1.117c-12.116,0-23.571-3.958-32.917-11.266  c-9.346,7.308-20.801,11.266-32.917,11.266c-29.388,0-53.297-23.671-53.297-52.767c0-6.877,1.305-13.522,3.885-19.804  c-2.58-6.282-3.885-12.927-3.885-19.804c0-15.706,7.106-30.476,19.022-40.407c-17.488-13.686-28.729-34.862-28.729-58.587  c0-41.169,33.846-74.662,75.449-74.662h38.828c30.067,0,56.911,17.665,68.888,44.156l36.66-36.235  c2.814-2.782,7.305-2.899,10.261-0.267c1.306,1.163,2.586,2.364,3.807,3.571C291.574,154.764,301.958,179.547,301.958,205.914z   M210.409,180.511c-8.206-24.091-31.239-40.606-57.304-40.606h-38.828c-33.332,0-60.449,26.764-60.449,59.662  s27.117,59.662,60.449,59.662h16.492L210.409,180.511z M286.958,205.914c0-21.468-8.137-41.705-22.97-57.272l-119.686,118.3  c33.184,30.742,85.482,30.104,117.873-1.911C278.157,249.236,286.958,228.241,286.958,205.914z M253.131,191.63h-9.707  c-4.142,0-7.5,3.358-7.5,7.5s3.358,7.5,7.5,7.5h9.707c4.142,0,7.5-3.358,7.5-7.5S257.273,191.63,253.131,191.63z M162.813,177.675  c-4.142,0-7.5,3.358-7.5,7.5v28.784c0,4.142,3.358,7.5,7.5,7.5s7.5-3.358,7.5-7.5v-28.784  C170.313,181.033,166.955,177.675,162.813,177.675z M231.536,224.325c-2.947-2.912-7.696-2.884-10.606,0.063  c-2.912,2.946-2.884,7.695,0.063,10.606l6.864,6.784c1.462,1.445,3.367,2.166,5.271,2.166c1.934,0,3.868-0.744,5.335-2.228  c2.912-2.946,2.884-7.694-0.063-10.606L231.536,224.325z"/>
<g>
</g>
<g>
</g>
<g>
</g>
<g>
</g>
<g>
</g>
<g>
</g>
<g>
</g>
<g>
</g>
<g>
</g>
<g>
</g>
<g>
</g>
<g>
</g>
<g>
</g>
<g>
</g>
<g>
</g>
</svg>
