<?xml version="1.0" encoding="iso-8859-1"?>
<!-- Generator: Adobe Illustrator 22.0.1, SVG Export Plug-In . SVG Version: 6.00 Build 0)  -->
<svg version="1.1" id="Layer_1" xmlns="http://www.w3.org/2000/svg" xmlns:xlink="http://www.w3.org/1999/xlink" x="0px" y="0px"
	 viewBox="0 0 2048 2048" style="enable-background:new 0 0 2048 2048;" xml:space="preserve">
<g>
	<g>
		<circle style="fill:#BBECFF;" cx="874.262" cy="905.045" r="589.57"/>
		<g>
			<g>
				<g>
					<path style="fill:#72B8CE;" d="M874.262,1523.307c-83.452,0-164.423-16.351-240.664-48.598
						c-73.625-31.14-139.742-75.716-196.513-132.487c-56.77-56.77-101.346-122.887-132.487-196.513
						C272.351,1069.469,256,988.498,256,905.046s16.351-164.424,48.598-240.664c31.141-73.626,75.716-139.743,132.487-196.513
						s122.887-101.346,196.513-132.487c76.241-32.247,157.212-48.598,240.664-48.598c83.453,0,164.424,16.351,240.664,48.598
						c73.625,31.141,139.743,75.716,196.513,132.487c56.77,56.771,101.346,122.888,132.487,196.513
						c32.247,76.24,48.598,157.212,48.598,240.664s-16.351,164.423-48.598,240.664c-31.141,73.625-75.716,139.743-132.487,196.513
						c-56.77,56.77-122.887,101.346-196.513,132.487C1038.686,1506.956,957.714,1523.307,874.262,1523.307z M874.262,344.167
						c-309.269,0-560.877,251.609-560.877,560.878c0,309.269,251.608,560.877,560.877,560.877
						c309.268,0,560.877-251.608,560.877-560.877C1435.139,595.776,1183.53,344.167,874.262,344.167z"/>
				</g>
			</g>
			<g>
				<g>
					<path style="fill:#72B8CE;" d="M874.262,1523.189c-89.528,0-172.035-66.978-232.323-188.595
						c-57.114-115.216-88.569-267.766-88.569-429.548c0-161.783,31.454-314.333,88.569-429.549
						c60.287-121.618,142.794-188.596,232.323-188.596s172.036,66.978,232.323,188.596
						c57.115,115.217,88.569,267.766,88.569,429.549c0,161.782-31.454,314.332-88.569,429.548
						C1046.298,1456.211,963.79,1523.189,874.262,1523.189z M874.262,344.285c-32.428,0-64.429,13.275-95.114,39.456
						c-31.827,27.156-60.693,66.602-85.795,117.242c-53.264,107.449-82.598,250.948-82.598,404.063
						c0,153.114,29.334,296.612,82.598,404.062c25.102,50.639,53.968,90.083,85.795,117.24
						c30.685,26.181,62.685,39.456,95.114,39.456c32.428,0,64.428-13.276,95.114-39.456c31.827-27.157,60.693-66.602,85.795-117.24
						c53.264-107.45,82.599-250.948,82.599-404.062c0-153.114-29.334-296.613-82.599-404.063
						c-25.102-50.639-53.968-90.085-85.795-117.242C938.69,357.56,906.689,344.285,874.262,344.285z"/>
				</g>
			</g>
			<g>
				<g>
					<g>
						<path style="fill:#72B8CE;" d="M1373.721,620.346H374.803c-15.846,0-28.692-12.846-28.692-28.692s12.846-28.692,28.692-28.692
							h998.918c15.846,0,28.692,12.846,28.692,28.692S1389.567,620.346,1373.721,620.346z"/>
					</g>
					<g>
						<path style="fill:#72B8CE;" d="M1373.721,1247.129H374.803c-15.846,0-28.692-12.846-28.692-28.692
							s12.846-28.692,28.692-28.692h998.918c15.846,0,28.692,12.846,28.692,28.692S1389.567,1247.129,1373.721,1247.129z"/>
					</g>
				</g>
			</g>
			<g>
				<g>
					<path style="fill:#72B8CE;" d="M1463.831,933.738H284.692c-15.846,0-28.692-12.846-28.692-28.692
						c0-15.846,12.846-28.692,28.692-28.692h1179.139c15.846,0,28.692,12.846,28.692,28.692
						C1492.523,920.892,1479.677,933.738,1463.831,933.738z"/>
				</g>
			</g>
			<g>
				<g>
					<path style="fill:#72B8CE;" d="M874.262,1523.25c-15.846,0-28.692-12.789-28.692-28.635V315.589
						c0-15.846,12.846-28.749,28.692-28.749c15.847,0,28.692,12.789,28.692,28.635v1179.026
						C902.953,1510.348,890.109,1523.25,874.262,1523.25z"/>
				</g>
			</g>
		</g>
	</g>
	<g>
		<g>
			<g>
				<g>
					<path style="fill:#465A65;" d="M1576.176,1761.217h-356.3c-13.179,0-23.862-10.683-23.862-23.862
						c0-13.179,10.683-23.862,23.862-23.862h356.3c13.179,0,23.862,10.683,23.862,23.862
						C1600.038,1750.533,1589.355,1761.217,1576.176,1761.217z"/>
				</g>
				<g>
					<g>
						<path style="fill:#465A65;" d="M1331.835,1761.217c-13.179,0-23.862-10.683-23.862-23.862v-188.866
							c0-13.179,10.684-23.862,23.862-23.862c13.179,0,23.862,10.684,23.862,23.862v188.866
							C1355.697,1750.533,1345.014,1761.217,1331.835,1761.217z"/>
					</g>
					<g>
						<path style="fill:#465A65;" d="M1464.217,1761.217c-13.179,0-23.862-10.683-23.862-23.862v-188.866
							c0-13.179,10.683-23.862,23.862-23.862c13.179,0,23.862,10.684,23.862,23.862v188.866
							C1488.079,1750.533,1477.396,1761.217,1464.217,1761.217z"/>
					</g>
				</g>
			</g>
		</g>
		<path style="fill:#CFD8DD;" d="M1791.997,1579.614v-410.868c0-20.364-16.508-36.872-36.872-36.872h-714.2
			c-20.364,0-36.872,16.508-36.872,36.872v410.868H1791.997z"/>
		<path style="fill:#465A65;" d="M1792,1522.966v56.643c0,20.372-16.515,36.877-36.877,36.877h-714.202
			c-20.363,0-36.867-16.505-36.867-36.877v-56.643l0.001-0.005h787.943L1792,1522.966z"/>
	</g>
	<g>
		<g>
			<path style="fill:#465A65;" d="M1491.116,1347.58c-6.341,0-12.681-2.418-17.518-7.256c-41.67-41.672-109.474-41.67-151.142,0
				c-9.675,9.675-25.361,9.675-35.036,0c-9.674-9.675-9.674-25.361,0-35.036c29.565-29.565,68.846-45.846,110.608-45.846
				c41.761,0,81.042,16.281,110.607,45.846c9.674,9.675,9.674,25.361,0,35.036C1503.797,1345.162,1497.457,1347.58,1491.116,1347.58
				z"/>
		</g>
		<g>
			<g>
				<path style="fill:#465A65;" d="M1453.88,1405.653c-6.341,0-12.68-2.418-17.518-7.256
					c-10.252-10.252-23.866-15.898-38.335-15.898c-14.47,0-28.084,5.646-38.336,15.898c-9.675,9.675-25.361,9.675-35.036,0
					c-9.674-9.675-9.674-25.361,0-35.036c40.458-40.459,106.285-40.457,146.743,0c9.674,9.675,9.674,25.361,0,35.036
					C1466.561,1403.234,1460.221,1405.653,1453.88,1405.653z"/>
			</g>
			<g>
				<path style="fill:#465A65;" d="M1528.351,1288.735c-6.341,0-12.68-2.418-17.518-7.256c-62.203-62.202-163.411-62.202-225.612,0
					c-9.675,9.675-25.361,9.675-35.036,0c-9.674-9.675-9.674-25.361,0-35.036c39.518-39.518,92.023-61.282,147.842-61.282
					c55.819,0,108.325,21.764,147.843,61.282c9.674,9.675,9.674,25.361,0,35.036
					C1541.031,1286.317,1534.692,1288.735,1528.351,1288.735z"/>
			</g>
		</g>
		<g>
			<circle style="fill:#465A65;" cx="1398.027" cy="1439.949" r="30.306"/>
		</g>
	</g>
</g>
</svg>
