<svg width="24" height="24" viewBox="0 0 24 24" fill="none" xmlns="http://www.w3.org/2000/svg">
<g opacity="0.5">
<path d="M11.9968 15.1746C7.68376 15.1746 3.99976 15.8546 3.99976 18.5746C3.99976 21.2956 7.66076 21.9996 11.9968 21.9996C16.3098 21.9996 19.9938 21.3206 19.9938 18.5996C19.9938 15.8786 16.3338 15.1746 11.9968 15.1746Z" fill="url(#paint0_linear_717_20178)"/>
<path opacity="0.4" d="M11.9968 12.5837C14.9348 12.5837 17.2888 10.2287 17.2888 7.29169C17.2888 4.35469 14.9348 1.99969 11.9968 1.99969C9.05983 1.99969 6.70483 4.35469 6.70483 7.29169C6.70483 10.2287 9.05983 12.5837 11.9968 12.5837Z" fill="url(#paint1_linear_717_20178)"/>
</g>
<defs>
<linearGradient id="paint0_linear_717_20178" x1="3.99976" y1="14.7555" x2="20.7044" y2="20.8207" gradientUnits="userSpaceOnUse">
<stop stop-color="#4023D7"/>
<stop offset="1" stop-color="#4023D7"/>
</linearGradient>
<linearGradient id="paint1_linear_717_20178" x1="6.70483" y1="1.3498" x2="18.9231" y2="3.24284" gradientUnits="userSpaceOnUse">
<stop stop-color="#4023D7"/>
<stop offset="1" stop-color="#4023D7"/>
</linearGradient>
</defs>
</svg>
