<?xml version="1.0" encoding="iso-8859-1"?>
<!-- Generator: Adobe Illustrator 19.0.0, SVG Export Plug-In . SVG Version: 6.00 Build 0)  -->
<svg version="1.1" id="Layer_1" xmlns="http://www.w3.org/2000/svg" xmlns:xlink="http://www.w3.org/1999/xlink" x="0px" y="0px"
	 viewBox="0 0 512 512" style="enable-background:new 0 0 512 512;" xml:space="preserve">
<g>
	<path style="fill:#98C8ED;" d="M375.233,126.247c-5.81,0-10.521-4.709-10.521-10.521V31.562c0-5.812,4.71-10.521,10.521-10.521
		h56.11c5.81,0,10.521,4.709,10.521,10.521s-4.71,10.521-10.521,10.521h-45.589v73.644
		C385.753,121.538,381.043,126.247,375.233,126.247z"/>
	<polygon style="fill:#98C8ED;" points="473.425,438.356 487.452,143.781 291.069,143.781 291.069,246.882 	"/>
</g>
<polygon style="fill:#7AB9E8;" points="431.342,143.781 419.987,382.247 473.425,438.356 487.452,143.781 "/>
<polyline style="fill:#EDEDED;" points="291.069,115.726 501.479,115.726 501.479,157.808 291.069,157.808 "/>
<polyline style="fill:#D8D8DA;" points="445.37,115.726 501.479,115.726 501.479,157.808 445.37,157.808 "/>
<polygon style="fill:#F6E27D;" points="263.014,59.616 263.014,17.534 220.932,17.534 220.932,45.589 178.849,45.589 
	178.849,31.562 136.767,31.562 136.767,17.534 94.685,17.534 94.685,45.589 52.603,45.589 52.603,73.644 10.521,73.644 
	10.521,185.863 305.096,185.863 305.096,59.616 "/>
<g>
	<path style="fill:#EFC27B;" d="M42.082,185.863c-5.81,0-10.521-4.709-10.521-10.521v-56.11c0-5.812,4.71-10.521,10.521-10.521
		s10.521,4.709,10.521,10.521v56.11C52.603,181.154,47.892,185.863,42.082,185.863z"/>
	<path style="fill:#EFC27B;" d="M126.247,157.808c-5.81,0-10.521-4.709-10.521-10.521V63.123c0-5.812,4.71-10.521,10.521-10.521
		c5.81,0,10.521,4.709,10.521,10.521v84.164C136.767,153.099,132.057,157.808,126.247,157.808z"/>
	<path style="fill:#EFC27B;" d="M175.342,206.904c-5.81,0-10.521-4.709-10.521-10.521V84.164c0-5.812,4.71-10.521,10.521-10.521
		s10.521,4.709,10.521,10.521v112.219C185.863,202.195,181.153,206.904,175.342,206.904z"/>
	<path style="fill:#EFC27B;" d="M238.466,101.699c-5.81,0-10.521-4.709-10.521-10.521v-56.11c0-5.812,4.71-10.521,10.521-10.521
		s10.521,4.709,10.521,10.521v56.11C248.986,96.99,244.276,101.699,238.466,101.699z"/>
	<path style="fill:#EFC27B;" d="M224.438,185.863c-5.81,0-10.521-4.709-10.521-10.521V133.26c0-5.812,4.71-10.521,10.521-10.521
		c5.81,0,10.521,4.709,10.521,10.521v42.082C234.959,181.154,230.249,185.863,224.438,185.863z"/>
	<path style="fill:#EFC27B;" d="M84.164,129.753c-5.81,0-10.521-4.709-10.521-10.521V77.151c0-5.812,4.71-10.521,10.521-10.521
		c5.81,0,10.521,4.709,10.521,10.521v42.082C94.685,125.044,89.975,129.753,84.164,129.753z"/>
</g>
<path style="fill:#E07188;" d="M157.808,185.863c-81.345,0-147.288-37.682-147.288-84.164v392.767h294.575V101.699
	C305.096,148.181,239.153,185.863,157.808,185.863z"/>
<path style="fill:#DC4161;" d="M248.986,167.8v326.666h56.11V101.699C305.096,128.506,283.16,152.387,248.986,167.8z"/>
<circle style="fill:#F6E27D;" cx="157.808" cy="333.151" r="77.151"/>
<path style="fill:#B29A7E;" d="M459.397,368.219v-14.027H248.986v14.027l0,0c-11.62,0-21.041,9.421-21.041,21.041
	s9.421,21.041,21.041,21.041l0,0v14.027h210.411v-14.027l0,0c11.62,0,21.041-9.421,21.041-21.041S471.018,368.219,459.397,368.219z"
	/>
<path style="fill:#A58868;" d="M459.397,368.219v-14.027h-49.096v14.027c11.62,0,21.041,9.421,21.041,21.041
	s-9.421,21.041-21.041,21.041l0,0v14.027h49.096v-14.027l0,0c11.62,0,21.041-9.421,21.041-21.041S471.018,368.219,459.397,368.219z"
	/>
<path style="fill:#80CB93;" d="M445.37,326.137V312.11H263.014v14.027c-23.242,0-42.082,9.421-42.082,21.041
	c0,11.62,18.84,21.041,42.082,21.041c8.404,0,16.224-1.236,22.795-3.358c6.57,2.122,14.391,3.358,22.795,3.358
	s16.224-1.236,22.795-3.358c6.57,2.122,14.391,3.358,22.795,3.358s16.224-1.236,22.794-3.358c6.57,2.122,14.391,3.358,22.795,3.358
	s16.224-1.236,22.795-3.358c6.57,2.122,14.391,3.358,22.795,3.358c23.241,0,42.082-9.421,42.082-21.041
	C487.452,335.558,468.61,326.137,445.37,326.137z"/>
<path style="fill:#6DC180;" d="M445.37,326.137V312.11h-42.082v14.027c23.241,0,42.082,9.421,42.082,21.041
	c0,7.782-8.457,14.573-21.02,18.213c6.188,1.791,13.357,2.828,21.02,2.828c23.241,0,42.082-9.421,42.082-21.041
	C487.452,335.558,468.61,326.137,445.37,326.137z"/>
<g>
	<path style="fill:#D8CCBC;" d="M220.932,410.301h266.521l0,0c0,46.483-37.682,84.164-84.164,84.164h-98.192
		C258.613,494.466,220.932,456.784,220.932,410.301L220.932,410.301z"/>
	<path style="fill:#D8CCBC;" d="M354.192,227.945c-73.598,0-133.26,43.962-133.26,98.192h266.521
		C487.452,271.907,427.789,227.945,354.192,227.945z"/>
</g>
<g>
	<path style="fill:#B29A7E;" d="M431.342,410.301L431.342,410.301c0,46.483-37.682,84.164-84.164,84.164h56.11
		c46.483,0,84.164-37.682,84.164-84.164l0,0H431.342z"/>
	<path style="fill:#B29A7E;" d="M354.192,227.945c-9.626,0-19.009,0.759-28.055,2.187c60.124,9.495,105.205,48.867,105.205,96.005
		h56.11C487.452,271.907,427.789,227.945,354.192,227.945z"/>
</g>
<g>
	<circle style="fill:#EBE4DD;" cx="329.644" cy="259.507" r="10.521"/>
	<circle style="fill:#EBE4DD;" cx="287.562" cy="273.534" r="10.521"/>
	<circle style="fill:#EBE4DD;" cx="378.74" cy="273.534" r="10.521"/>
</g>
<circle style="fill:#D8CCBC;" cx="427.836" cy="266.521" r="10.521"/>
<g>
	<path style="fill:#2E2D31;" d="M199.575,256.051c-12.744-6.917-27.187-10.571-41.767-10.571c-48.341,0-87.671,39.329-87.671,87.671
		s39.33,87.671,87.671,87.671c11.418,0,22.528-2.164,33.021-6.434c5.382-2.19,7.969-8.329,5.779-13.71
		c-2.191-5.384-8.331-7.968-13.71-5.779c-7.962,3.24-16.404,4.883-25.089,4.883c-36.739,0-66.63-29.891-66.63-66.63
		s29.891-66.63,66.63-66.63c11.086,0,22.058,2.773,31.731,8.024c5.106,2.773,11.494,0.88,14.264-4.229
		C206.576,265.208,204.682,258.822,199.575,256.051z"/>
	<path style="fill:#2E2D31;" d="M501.479,105.205H385.753V42.082h45.589c5.81,0,10.521-4.709,10.521-10.521
		s-4.71-10.521-10.521-10.521h-56.11c-5.81,0-10.521,4.709-10.521,10.521v73.644h-49.096v-3.507V59.616
		c0-5.812-4.71-10.521-10.521-10.521h-31.562V17.534c0-5.812-4.71-10.521-10.521-10.521h-42.082c-5.81,0-10.521,4.709-10.521,10.521
		v17.534H189.37v-3.507c0-5.812-4.71-10.521-10.521-10.521h-31.562v-3.507c0-5.812-4.71-10.521-10.521-10.521H94.685
		c-5.81,0-10.521,4.709-10.521,10.521v17.534H52.603c-5.81,0-10.521,4.709-10.521,10.521v17.534H10.521
		C4.71,63.123,0,67.832,0,73.644v28.055v392.767c0,5.812,4.71,10.521,10.521,10.521h392.767c52.21,0,94.685-42.475,94.685-94.685
		c0-5.249-3.846-9.585-8.871-10.379c1.199-3.333,1.857-6.923,1.857-10.662c0-7.617-2.713-14.612-7.221-20.072
		c8.902-5.601,14.235-13.283,14.235-22.01c0-4.569-1.463-8.85-4.13-12.698c2.507-1.923,4.13-4.939,4.13-8.344
		c0-16.311-4.663-32.016-13.497-46.275l8.231-74.087c0.641-5.775-3.519-10.976-9.295-11.617c-5.765-0.638-10.976,3.519-11.618,9.295
		l-5.998,53.983c-3.456-3.198-7.164-6.273-11.135-9.199c-26.965-19.868-62.645-30.811-100.47-30.811
		c-13.218,0-26.161,1.365-38.575,3.952v-53.047h185.863c5.81,0,10.521-4.709,10.521-10.521v-42.082
		C512,109.914,507.29,105.205,501.479,105.205z M21.041,84.164h31.562c5.81,0,10.521-4.709,10.521-10.521V56.11h31.562
		c5.81,0,10.521-4.709,10.521-10.521V28.055h21.041v45.589c0,5.812,4.71,10.521,10.521,10.521c5.81,0,10.521-4.709,10.521-10.521
		V42.082h21.041v3.507c0,5.812,4.71,10.521,10.521,10.521h42.082c5.81,0,10.521-4.709,10.521-10.521V28.055h21.041v31.562
		c0,5.812,4.71,10.521,10.521,10.521h31.562v31.562c0,39.919-62.631,73.644-136.767,73.644S21.041,141.618,21.041,101.699V84.164z
		 M403.288,483.945h-98.192c-37.035,0-67.773-27.482-72.895-63.123h243.981C471.061,456.463,440.323,483.945,403.288,483.945z
		 M459.397,378.74c5.802,0,10.521,4.719,10.521,10.521s-4.719,10.521-10.521,10.521H248.986c-5.802,0-10.521-4.719-10.521-10.521
		s4.719-10.521,10.521-10.521c1.208,0,2.365-0.213,3.445-0.589c3.4,0.384,6.935,0.589,10.582,0.589c7.954,0,15.763-1,22.795-2.908
		c7.032,1.908,14.841,2.908,22.795,2.908s15.763-1,22.795-2.908c7.032,1.908,14.841,2.908,22.795,2.908s15.763-1,22.794-2.908
		c7.032,1.908,14.841,2.908,22.795,2.908s15.763-1,22.795-2.908c7.032,1.908,14.841,2.908,22.795,2.908
		c3.646,0,7.181-0.205,10.582-0.589C457.032,378.527,458.188,378.74,459.397,378.74z M476.932,347.178
		c0,2.619-11.194,10.521-31.562,10.521c-7.028,0-13.792-0.985-19.561-2.848c-1.052-0.339-2.142-0.509-3.233-0.509
		c-1.091,0-2.183,0.17-3.233,0.509c-5.769,1.863-12.533,2.848-19.561,2.848s-13.792-0.985-19.561-2.848
		c-2.103-0.679-4.364-0.679-6.467,0c-5.77,1.863-12.533,2.848-19.561,2.848s-13.792-0.985-19.561-2.848
		c-2.103-0.679-4.364-0.679-6.467,0c-5.769,1.863-12.533,2.848-19.561,2.848s-13.792-0.985-19.561-2.848
		c-2.103-0.679-4.364-0.679-6.467,0c-5.769,1.863-12.533,2.848-19.561,2.848c-20.368,0-31.562-7.902-31.562-10.521
		s11.194-10.521,31.562-10.521H445.37C465.738,336.658,476.932,344.559,476.932,347.178z M476.053,315.616H232.33
		c7.296-43.402,59.163-77.151,121.862-77.151S468.756,272.214,476.053,315.616z M253.722,248.236
		c-27.93,20.58-43.311,48.244-43.311,77.901c0,3.404,1.623,6.42,4.13,8.344c-2.667,3.848-4.13,8.129-4.13,12.698
		c0,8.728,5.332,16.409,14.235,22.01c-4.508,5.459-7.221,12.455-7.221,20.072c0,3.741,0.658,7.331,1.857,10.662
		c-5.025,0.793-8.871,5.13-8.871,10.379c0,29.72,13.775,56.272,35.263,73.644H21.041V149.507c7.341,7.613,16.519,14.622,27.4,20.839
		c29.383,16.791,68.224,26.038,109.367,26.038s79.984-9.247,109.367-26.038c10.881-6.218,20.058-13.228,27.4-20.839v77.615
		C279.608,232.257,265.788,239.345,253.722,248.236z M490.959,147.288H315.616v-21.041h175.342V147.288z"/>
</g>
<g>
</g>
<g>
</g>
<g>
</g>
<g>
</g>
<g>
</g>
<g>
</g>
<g>
</g>
<g>
</g>
<g>
</g>
<g>
</g>
<g>
</g>
<g>
</g>
<g>
</g>
<g>
</g>
<g>
</g>
</svg>
