<svg width="57" height="58" viewBox="0 0 57 58" fill="none" xmlns="http://www.w3.org/2000/svg">
<g clip-path="url(#clip0_717_7865)">
<path d="M30 53C41.0457 53 50 44.0457 50 33C50 21.9543 41.0457 13 30 13C18.9543 13 10 21.9543 10 33C10 44.0457 18.9543 53 30 53Z" fill="#26674A"/>
<path d="M24.8896 42.0221L35.1736 52.306C43.6909 50.0347 50.0001 42.2744 50.0001 33C50.0001 32.8107 50.0001 32.6214 50.0001 32.4322L41.9243 24.9874L24.8896 42.0221Z" fill="#0F573F"/>
<path d="M30.5045 37.4795C31.3878 38.3628 31.3878 39.877 30.5045 40.7602L28.6748 42.5899C27.7916 43.4732 26.2774 43.4732 25.3941 42.5899L17.3815 34.5142C16.4982 33.6309 16.4982 32.1167 17.3815 31.2334L19.2111 29.4038C20.0944 28.5205 21.6086 28.5205 22.4919 29.4038L30.5045 37.4795Z" fill="#2A2C38"/>
<path d="M37.5074 23.5363C38.3907 22.653 39.9049 22.653 40.7882 23.5363L42.6178 25.3659C43.5011 26.2492 43.5011 27.7634 42.6178 28.6467L28.7377 42.4637C27.8544 43.347 26.3402 43.347 25.457 42.4637L23.6273 40.6341C22.744 39.7508 22.744 38.2366 23.6273 37.3533L37.5074 23.5363Z" fill="#2A2C38"/>
</g>
<circle cx="55" cy="5" r="2" fill="#26674A"/>
<circle cx="4" cy="1" r="1" fill="#26674A"/>
<circle cx="54" cy="57" r="1" fill="#26674A"/>
<circle cx="4.5" cy="52.5" r="4.5" fill="#26674A"/>
<defs>
<clipPath id="clip0_717_7865">
<rect width="40" height="40" fill="white" transform="translate(10 13)"/>
</clipPath>
</defs>
</svg>
